# xmcd
#
# Track frame offsets: 
#        150
#        12137
#        20574
#        40941
#        65384
#        82278
#        108813
#        133361
#        157291
#        173242
#        190354
#        206826
#        225072
#
# Disc length: 3167 seconds
#
# Revision: 0
# Processed by: cddbd v1.5.2PL0 Copyright (c) Steve Scherf et al.
# Submitted via: ExactAudioCopy v1.0b3
#
DISCID=b10c5d0d
DTITLE=The Divide - The Sea Of Skulls
DYEAR=1900
DGENRE=
TTITLE0=Trust Your Senses, They're Telling You To Rock
TTITLE1=Addiction
TTITLE2=Dark Roads
TTITLE3=Lizards
TTITLE4=Call The Wolf
TTITLE5=The Sea Of Skulls
TTITLE6=Dead Town
TTITLE7=Laugh In The Face Of Death
TTITLE8=Kamikaze Man
TTITLE9=$1,000,000
TTITLE10=Monkeys
TTITLE11=The Dealer
TTITLE12=Bitchkrieg
EXTD=
EXTT0=
EXTT1=
EXTT2=
EXTT3=
EXTT4=
EXTT5=
EXTT6=
EXTT7=
EXTT8=
EXTT9=
EXTT10=
EXTT11=
EXTT12=
PLAYORDER=
